# xmcd
#
# Track frame offsets:
#	150
#	14956
#	26806
#	40669
#	52349
#	65032
#	75277
#	85182
#	95900
#	108932
#	120865
#	131988
#	142275
#	155311
#	172641
#	185052
#	197155
#	208178
#	220497
#	233086
#	243398
#	261395
#	273965
#	286321
#
# Disc length: 3954 seconds
#
# Revision: 0
# Processed by: cddbd v1.4PL0 Copyright (c) Steve Scherf et al.
# Submitted via: EasyCDDAExtractor 4.6.9.1
#
DISCID=6f0f7018
DTITLE=Jeannie C. Riley - The Very Best Of (Harper Valley P.T.A.)
DYEAR=1999
DGENRE=Country
TTITLE0=Harper Valley P.T.A.
TTITLE1=Before The Next Teardrop Falls
TTITLE2=The Wedding Cake
TTITLE3=Duty Not Desire
TTITLE4=Good Enough To Be Your Wife
TTITLE5=A Real Woman
TTITLE6=The Girl Most Likey
TTITLE7=Help Me Make It Through The Night
TTITLE8=Roses And Thorns
TTITLE9=The Back Side Of Dallas
TTITLE10=I'm The Woman That Belongs To Her Man
TTITLE11=Things Go Better With Love
TTITLE12=My Man
TTITLE13=Oh Singer
TTITLE14=Teardrops On Page Fourty-Three
TTITLE15=Country Girl
TTITLE16=That's How It Is With Him And Me
TTITLE17=I Love Him
TTITLE18=The Generation Gap
TTITLE19=He Made A Woman Out Of Me
TTITLE20=The Rib
TTITLE21=I'm Only A Woman
TTITLE22=There Never Was A Time
TTITLE23=Macon County Bad Girl
EXTD=
EXTT0=
EXTT1=
EXTT2=
EXTT3=
EXTT4=
EXTT5=
EXTT6=
EXTT7=
EXTT8=
EXTT9=
EXTT10=
EXTT11=
EXTT12=
EXTT13=
EXTT14=
EXTT15=
EXTT16=
EXTT17=
EXTT18=
EXTT19=
EXTT20=
EXTT21=
EXTT22=
EXTT23=
PLAYORDER=
